<svg xmlns="http://www.w3.org/2000/svg" width="512" height="512" viewBox="0 0 512 512">
  <rect width="512" height="512" rx="64" fill="#111827"/>
  <circle cx="256" cy="256" r="180" fill="#1f2937"/>
  <g transform="translate(128, 128) scale(2)">
    <path fill="#FFCA28" d="M79.5 28.9c1.9 2 2.3 4.5 1.5 5.9c-.9 1.6-2 2.4-3.7 2.4c-.7 0-4-.1-5.8 1c-2 1.2-6.3 3.3-11.3 2.8c-3.3-.3-7.6-3.6-9.6-1.2c-1 1.2-2.6 5.7-2.7 12c-.1 4.4.6 19.9-1.4 29.8c-.1.7.5 1.4 1.2 1.4c1.9-.1 4.1-.9 6-5.5c10.1-24.7 51.5-23.1 57.6 4.7c2.3 10.2 5.4 31.2-14.7 37.2c-14.9 4.4-35.9.8-47.1-.1c-7-.6-32.4-1.7-34.6-15.9c-.7-4.1.3-11.2 1.6-20.6c.4-3.2 1.4-12.2 4.7-22.1C24 52.7 28 45.3 33 37c1.8-3 4-7.9 9.8-13.9c8.1-8.4 18-14.2 23.7-16.8c4.2-1.9 6.6 1.4 7.7 4c.9 2.2 6.1 9.2 8.5 12.5c.7 1 1.2 3.2-.3 4.2c-1.4 1.1-2.9 1.9-2.9 1.9"/>
  </g>
</svg>
